<svg xmlns="http://www.w3.org/2000/svg" version="1.1" viewBox="0.00 0.00 614.00 229.00" width="614.00" height="229.00">
<path fill="#1252b4" d="&#10;  M 148.34 88.88&#10;  A 0.35 0.35 0.0 0 1 147.90 88.47&#10;  L 152.25 69.14&#10;  A 1.03 1.02 -83.6 0 0 151.26 67.89&#10;  L 26.38 67.89&#10;  A 0.45 0.44 4.9 0 1 25.94 67.37&#10;  L 34.45 17.85&#10;  A 1.74 1.73 4.9 0 1 36.16 16.42&#10;  L 160.45 16.42&#10;  A 1.81 1.79 -85.0 0 0 162.22 14.92&#10;  L 164.51 1.58&#10;  A 0.39 0.39 0.0 0 1 165.17 1.37&#10;  L 199.75 35.94&#10;  A 0.98 0.97 -44.4 0 1 199.73 37.33&#10;  Q 177.74 58.44 157.15 79.40&#10;  Q 151.37 85.29 148.93 88.43&#10;  Q 148.65 88.79 148.34 88.88&#10;  Z"/>
<path fill="#2f2f2f" d="&#10;  M 598.33 203.59&#10;  L 570.61 203.59&#10;  A 0.74 0.74 0.0 0 1 569.87 202.78&#10;  L 575.07 149.34&#10;  A 0.74 0.74 0.0 0 0 574.33 148.53&#10;  L 529.31 148.53&#10;  A 0.74 0.74 0.0 0 0 528.57 149.20&#10;  L 523.35 202.89&#10;  A 0.74 0.74 0.0 0 1 522.61 203.56&#10;  L 494.75 203.56&#10;  A 0.74 0.74 0.0 0 1 494.01 202.75&#10;  L 507.26 66.67&#10;  A 0.74 0.74 0.0 0 1 508.00 66.00&#10;  L 535.65 66.00&#10;  A 0.74 0.74 0.0 0 1 536.39 66.81&#10;  L 531.25 119.64&#10;  A 0.74 0.74 0.0 0 0 531.99 120.45&#10;  L 577.14 120.45&#10;  A 0.74 0.74 0.0 0 0 577.88 119.78&#10;  L 583.06 66.58&#10;  A 0.74 0.74 0.0 0 1 583.80 65.91&#10;  L 611.60 65.91&#10;  A 0.74 0.74 0.0 0 1 612.34 66.72&#10;  L 599.07 202.92&#10;  A 0.74 0.74 0.0 0 1 598.33 203.59&#10;  Z"/>
<path fill="#2f2f2f" d="&#10;  M 357.41 66.13&#10;  A 0.20 0.19 10.1 0 1 357.60 66.39&#10;  Q 355.96 70.70 353.17 74.19&#10;  C 348.55 80.00 344.82 86.60 341.98 93.47&#10;  A 1.60 1.60 0.0 0 1 340.50 94.46&#10;  L 214.65 94.46&#10;  A 0.52 0.51 -87.0 0 1 214.14 93.89&#10;  L 216.76 67.01&#10;  A 0.97 0.97 0.0 0 1 217.73 66.13&#10;  L 357.41 66.13&#10;  Z"/>
<path fill="#2f2f2f" d="&#10;  M 203.05 203.60&#10;  A 0.60 0.60 0.0 0 1 202.45 202.94&#10;  L 204.99 176.81&#10;  A 1.36 1.36 0.0 0 1 206.34 175.58&#10;  Q 216.65 175.59 427.70 175.60&#10;  Q 435.37 175.60 438.67 174.49&#10;  C 449.77 170.79 454.17 160.53 453.57 149.51&#10;  A 0.90 0.89 -1.3 0 0 452.67 148.66&#10;  L 349.56 148.66&#10;  A 0.98 0.98 0.0 0 1 348.59 147.56&#10;  Q 350.86 128.63 352.83 109.66&#10;  Q 353.17 106.41 353.48 103.97&#10;  C 355.80 85.62 370.05 70.33 387.99 66.74&#10;  Q 391.49 66.04 409.56 66.13&#10;  Q 445.20 66.31 490.17 66.01&#10;  A 0.24 0.24 0.0 0 1 490.40 66.32&#10;  L 481.73 93.11&#10;  A 1.47 1.45 -81.7 0 1 480.39 94.12&#10;  C 464.01 94.59 440.61 94.41 406.95 94.30&#10;  Q 396.80 94.27 393.81 95.56&#10;  C 384.24 99.67 380.97 110.08 381.26 119.92&#10;  A 0.62 0.61 -1.0 0 0 381.88 120.51&#10;  L 485.10 120.51&#10;  A 0.88 0.87 3.5 0 1 485.97 121.49&#10;  Q 485.55 125.17 481.69 161.75&#10;  C 479.71 180.54 466.91 197.26 448.57 202.20&#10;  Q 443.29 203.62 430.82 203.62&#10;  Q 257.54 203.55 203.05 203.60&#10;  Z"/>
<path fill="#00acf9" d="&#10;  M 109.59 88.50&#10;  L 102.16 131.74&#10;  A 0.79 0.79 0.0 0 1 101.38 132.40&#10;  L 15.57 132.40&#10;  A 0.79 0.79 0.0 0 1 14.79 131.48&#10;  L 22.22 88.24&#10;  A 0.79 0.79 0.0 0 1 23.00 87.58&#10;  L 108.81 87.58&#10;  A 0.79 0.79 0.0 0 1 109.59 88.50&#10;  Z"/>
<path fill="#2f2f2f" d="&#10;  M 236.92 149.26&#10;  L 236.10 157.71&#10;  A 0.66 0.66 0.0 0 1 235.44 158.31&#10;  L 207.99 158.31&#10;  A 0.66 0.66 0.0 0 1 207.33 157.59&#10;  L 210.88 121.14&#10;  A 0.66 0.66 0.0 0 1 211.54 120.54&#10;  L 339.17 120.54&#10;  A 0.66 0.66 0.0 0 1 339.79 121.43&#10;  L 329.59 148.23&#10;  A 0.66 0.66 0.0 0 1 328.97 148.66&#10;  L 237.58 148.66&#10;  A 0.66 0.66 0.0 0 0 236.92 149.26&#10;  Z"/>
<path fill="#1252b4" d="&#10;  M 140.08 136.68&#10;  A 0.58 0.58 0.0 0 1 141.06 136.37&#10;  L 175.89 171.20&#10;  A 0.88 0.88 0.0 0 1 175.89 172.44&#10;  Q 160.40 187.89 142.17 205.91&#10;  Q 138.71 209.32 125.75 223.16&#10;  A 1.40 1.18 85.1 0 0 125.56 223.43&#10;  L 123.20 227.80&#10;  A 0.22 0.22 0.0 0 1 122.79 227.68&#10;  Q 122.94 225.34 123.70 222.47&#10;  Q 126.04 213.56 127.76 204.50&#10;  A 0.70 0.69 -84.5 0 0 127.08 203.67&#10;  L 1.72 203.67&#10;  A 0.60 0.60 0.0 0 1 1.13 202.96&#10;  L 10.33 153.06&#10;  A 1.23 1.23 0.0 0 1 11.54 152.04&#10;  L 136.07 152.04&#10;  A 1.42 1.42 0.0 0 0 137.46 150.89&#10;  L 140.08 136.68&#10;  Z"/>
</svg>